<svg id="svg" version="1.1" xmlns="http://www.w3.org/2000/svg" xmlns:xlink="http://www.w3.org/1999/xlink" width="400" height="400" viewBox="0, 0, 400,400"><g id="svgg"><path id="path0" d="M163.853 3.847 C 161.786 5.964,159.555 8.235,158.894 8.894 C 155.359 12.427,143.480 24.312,142.148 25.651 C 141.296 26.506,139.115 28.637,137.300 30.386 C 132.932 34.595,132.878 34.292,139.106 40.506 C 144.998 46.385,144.560 46.227,147.411 43.500 C 151.736 39.363,158.618 32.443,159.600 31.244 C 160.150 30.573,160.734 30.019,160.897 30.012 C 161.177 30.001,161.322 53.429,161.803 176.396 L 162.006 228.192 124.966 265.234 C 94.216 295.986,87.774 302.246,87.028 302.103 C 86.317 301.967,85.386 302.701,82.565 305.619 C 80.604 307.647,77.320 310.948,75.267 312.953 C 73.214 314.959,69.524 318.647,67.067 321.149 C 64.610 323.651,60.917 327.341,58.860 329.349 C 56.802 331.357,53.112 335.046,50.660 337.547 C 45.084 343.233,43.233 345.084,37.547 350.660 C 35.046 353.112,31.355 356.802,29.345 358.860 C 27.334 360.917,23.329 364.925,20.445 367.767 L 15.200 372.935 15.200 361.667 L 15.200 350.400 7.600 350.400 L 0.000 350.400 0.000 375.200 L 0.000 400.000 24.800 400.000 L 49.600 400.000 49.600 392.400 L 49.600 384.800 38.600 384.800 C 32.550 384.800,27.600 384.701,27.600 384.581 C 27.600 384.461,42.713 369.246,61.184 350.771 C 88.903 323.046,94.811 316.949,95.016 315.858 C 95.221 314.764,101.889 307.910,133.535 276.265 L 171.807 237.995 229.603 238.196 C 331.589 238.552,370.001 238.800,369.976 239.104 C 369.963 239.267,368.878 240.390,367.565 241.600 C 362.166 246.576,354.400 254.657,354.400 255.299 C 354.400 256.247,364.533 266.000,365.518 266.000 C 367.247 266.000,400.000 232.734,400.000 230.977 C 400.000 229.567,394.267 223.310,383.231 212.675 C 381.818 211.314,377.423 206.915,373.463 202.900 C 365.198 194.520,365.513 194.658,362.400 198.035 C 361.190 199.348,358.883 201.776,357.274 203.430 C 355.665 205.085,354.405 206.703,354.474 207.028 C 354.543 207.352,358.107 211.123,362.394 215.408 L 370.187 223.200 328.917 223.200 C 301.835 223.200,287.562 223.338,287.400 223.600 C 286.930 224.361,176.535 224.130,176.243 223.367 C 175.809 222.237,175.964 125.270,176.400 125.000 C 176.663 124.837,176.800 108.503,176.800 77.299 L 176.800 29.846 184.607 37.623 C 193.633 46.614,192.947 46.243,195.682 43.622 C 203.152 36.465,204.400 35.158,204.400 34.493 C 204.400 34.064,201.659 31.051,197.900 27.349 C 194.325 23.827,189.917 19.428,188.104 17.573 C 168.219 -2.773,169.571 -2.008,163.853 3.847 " stroke="none" fill="#1c1c1c" fill-rule="evenodd"></path><path id="path1" d="M107.407 124.644 C 107.073 124.888,106.800 125.344,106.800 125.656 C 106.800 125.968,106.450 126.476,106.021 126.785 C 105.593 127.093,105.325 127.478,105.425 127.641 C 105.525 127.803,105.381 128.175,105.104 128.468 C 104.827 128.760,104.346 129.492,104.036 130.093 C 103.726 130.695,103.186 131.512,102.836 131.909 C 102.205 132.625,101.913 133.353,101.882 134.282 C 101.874 134.548,101.717 134.672,101.533 134.559 C 101.350 134.445,101.200 134.633,101.200 134.976 C 101.200 135.319,101.009 135.600,100.776 135.600 C 100.543 135.600,100.464 135.780,100.600 136.000 C 100.736 136.220,100.660 136.400,100.431 136.400 C 100.202 136.400,99.902 136.850,99.764 137.400 C 99.626 137.950,99.353 138.400,99.157 138.400 C 98.960 138.400,98.800 138.771,98.800 139.224 C 98.800 139.677,98.620 139.936,98.400 139.800 C 98.180 139.664,98.000 139.896,98.000 140.314 C 98.000 140.733,97.640 141.402,97.200 141.800 C 96.760 142.198,96.400 142.766,96.400 143.062 C 96.400 143.358,96.220 143.600,96.000 143.600 C 95.780 143.600,95.600 143.946,95.600 144.369 C 95.600 144.792,95.172 145.647,94.649 146.269 C 94.125 146.891,93.670 147.580,93.638 147.800 C 93.519 148.605,92.596 150.400,92.302 150.400 C 92.136 150.400,92.000 150.636,92.000 150.925 C 92.000 151.213,91.640 151.836,91.200 152.308 C 90.760 152.780,90.400 153.444,90.400 153.783 C 90.400 154.122,90.220 154.400,90.000 154.400 C 89.780 154.400,89.600 154.760,89.600 155.200 C 89.600 155.640,89.420 156.000,89.200 156.000 C 88.980 156.000,88.800 156.320,88.800 156.712 C 88.800 157.103,88.440 157.683,88.000 158.000 C 87.560 158.317,87.200 158.771,87.200 159.009 C 87.200 159.675,86.237 161.593,85.900 161.597 C 85.735 161.599,85.600 161.804,85.600 162.053 C 85.600 162.302,85.285 162.797,84.900 163.153 C 84.515 163.509,84.142 164.070,84.070 164.400 C 83.999 164.730,83.774 165.060,83.570 165.133 C 83.367 165.207,83.200 165.538,83.200 165.870 C 83.200 166.202,82.840 166.931,82.400 167.491 C 81.960 168.050,81.600 168.816,81.600 169.192 C 81.600 169.568,81.240 170.202,80.800 170.600 C 80.360 170.998,80.000 171.538,80.000 171.800 C 80.000 172.062,79.644 172.598,79.209 172.991 C 78.775 173.385,78.506 173.848,78.613 174.021 C 78.720 174.194,78.579 174.575,78.301 174.868 C 78.022 175.160,77.436 176.163,76.997 177.095 C 76.559 178.028,76.065 178.793,75.900 178.795 C 75.735 178.798,75.600 179.171,75.600 179.624 C 75.600 180.077,75.420 180.336,75.200 180.200 C 74.980 180.064,74.800 180.323,74.800 180.776 C 74.800 181.229,74.620 181.600,74.400 181.600 C 74.180 181.600,74.000 181.881,74.000 182.224 C 74.000 182.567,73.820 182.736,73.600 182.600 C 73.380 182.464,73.200 182.723,73.200 183.176 C 73.200 183.629,73.020 184.000,72.800 184.000 C 72.580 184.000,72.400 184.345,72.400 184.767 C 72.400 185.188,72.265 185.593,72.100 185.667 C 71.681 185.853,69.537 190.000,69.860 190.000 C 70.004 190.000,69.735 190.336,69.261 190.747 C 68.788 191.158,68.400 191.698,68.400 191.947 C 68.400 192.196,68.220 192.400,68.000 192.400 C 67.780 192.400,67.600 192.670,67.600 193.000 C 67.600 193.330,67.390 193.600,67.133 193.600 C 66.877 193.600,66.785 193.718,66.930 193.863 C 67.075 194.008,66.993 194.368,66.748 194.663 C 66.503 194.958,66.421 195.200,66.567 195.200 C 66.712 195.200,66.464 195.594,66.016 196.075 C 65.567 196.557,65.200 197.198,65.200 197.499 C 65.200 197.801,65.016 197.933,64.790 197.794 C 64.565 197.655,64.406 197.689,64.437 197.870 C 64.575 198.663,64.377 199.710,64.135 199.468 C 63.989 199.323,63.545 199.930,63.147 200.818 C 62.750 201.706,62.194 202.689,61.912 203.002 C 60.710 204.340,60.460 204.727,60.668 204.934 C 60.788 205.055,60.536 205.659,60.106 206.277 C 59.677 206.895,59.073 207.985,58.765 208.700 C 58.457 209.415,58.069 210.000,57.902 210.000 C 57.736 210.000,57.600 210.358,57.600 210.797 C 57.600 211.235,57.240 211.818,56.800 212.093 C 56.360 212.368,56.000 212.875,56.000 213.221 C 56.000 213.566,55.640 214.236,55.200 214.708 C 54.760 215.180,54.400 215.844,54.400 216.183 C 54.400 216.522,54.220 216.800,54.000 216.800 C 53.780 216.800,53.600 217.171,53.600 217.624 C 53.600 218.077,53.420 218.336,53.200 218.200 C 52.980 218.064,52.800 218.233,52.800 218.576 C 52.800 218.919,52.620 219.200,52.400 219.200 C 52.180 219.200,52.000 219.560,52.000 220.000 C 52.000 220.440,51.854 220.800,51.675 220.800 C 51.496 220.800,51.105 221.422,50.807 222.182 C 50.509 222.942,50.115 223.471,49.932 223.358 C 49.750 223.245,49.600 223.523,49.600 223.976 C 49.600 224.429,49.420 224.800,49.200 224.800 C 48.980 224.800,48.800 225.101,48.800 225.469 C 48.800 225.836,48.530 226.435,48.201 226.799 C 47.871 227.163,47.193 228.268,46.694 229.254 L 45.786 231.048 46.593 232.624 C 47.037 233.491,47.715 234.549,48.100 234.975 C 48.485 235.402,48.800 236.077,48.800 236.475 C 48.800 236.874,48.936 237.200,49.102 237.200 C 49.269 237.200,49.661 237.785,49.973 238.500 C 50.286 239.215,50.870 240.035,51.271 240.323 C 51.672 240.610,52.000 241.180,52.000 241.589 C 52.000 241.999,52.166 242.393,52.370 242.467 C 52.573 242.540,52.798 242.870,52.870 243.200 C 52.941 243.530,53.315 244.091,53.700 244.447 C 54.085 244.803,54.400 245.305,54.400 245.564 C 54.400 245.822,54.760 246.420,55.200 246.892 C 55.640 247.364,56.000 248.077,56.000 248.475 C 56.000 248.874,56.158 249.200,56.351 249.200 C 56.545 249.200,56.940 249.785,57.229 250.500 C 57.519 251.215,58.036 252.070,58.378 252.400 C 58.720 252.730,59.063 253.360,59.140 253.800 C 59.217 254.240,59.417 254.690,59.584 254.800 C 60.010 255.080,61.200 257.461,61.200 258.033 C 61.200 258.293,61.588 258.842,62.061 259.253 C 62.535 259.664,62.792 260.000,62.633 260.000 C 62.473 260.000,62.626 260.283,62.971 260.629 C 63.317 260.974,63.600 261.604,63.600 262.029 C 63.600 262.453,63.780 262.800,64.000 262.800 C 64.220 262.800,64.400 263.070,64.400 263.400 C 64.400 263.730,64.580 264.000,64.800 264.000 C 65.020 264.000,65.200 264.246,65.200 264.546 C 65.200 264.846,65.560 265.550,66.000 266.109 C 66.440 266.669,66.800 267.413,66.800 267.763 C 66.800 268.113,66.980 268.400,67.200 268.400 C 67.420 268.400,67.600 268.670,67.600 269.000 C 67.600 269.330,67.746 269.600,67.925 269.600 C 68.104 269.600,68.495 270.222,68.793 270.982 C 69.091 271.742,69.485 272.271,69.668 272.158 C 69.850 272.045,70.000 272.233,70.000 272.576 C 70.000 272.919,70.180 273.200,70.400 273.200 C 70.620 273.200,70.800 273.470,70.800 273.800 C 70.800 274.130,70.980 274.400,71.200 274.400 C 71.420 274.400,71.600 274.760,71.600 275.200 C 71.600 275.640,71.780 276.000,72.000 276.000 C 72.220 276.000,72.400 276.360,72.400 276.800 C 72.400 277.240,72.535 277.601,72.700 277.603 C 73.037 277.607,74.000 279.525,74.000 280.191 C 74.000 280.429,74.360 280.883,74.800 281.200 C 75.240 281.517,75.600 282.057,75.600 282.400 C 75.600 282.743,75.960 283.283,76.400 283.600 C 76.840 283.917,77.200 284.587,77.200 285.088 C 77.200 285.590,77.410 286.000,77.667 286.000 C 77.923 286.000,78.022 286.112,77.885 286.248 C 77.748 286.385,78.071 287.135,78.601 287.915 C 79.131 288.695,79.472 289.484,79.359 289.667 C 79.245 289.850,79.343 290.000,79.576 290.000 C 79.809 290.000,80.000 290.281,80.000 290.624 C 80.000 290.967,80.180 291.136,80.400 291.000 C 80.620 290.864,80.800 291.108,80.800 291.543 C 80.800 291.978,80.967 292.393,81.170 292.467 C 81.374 292.540,81.599 292.863,81.670 293.184 C 81.742 293.506,82.115 294.125,82.500 294.560 C 82.885 294.995,83.200 295.598,83.200 295.899 C 83.200 296.201,83.380 296.336,83.600 296.200 C 83.820 296.064,84.000 296.251,84.000 296.615 C 84.000 296.979,84.377 297.806,84.838 298.453 C 85.298 299.100,85.714 299.894,85.762 300.218 C 86.095 302.487,86.335 302.263,124.010 264.590 L 161.200 227.402 161.200 175.906 L 161.200 124.411 134.607 124.306 C 115.597 124.230,107.841 124.327,107.407 124.644 M203.500 124.300 L 176.800 124.406 176.800 170.870 C 176.800 196.425,176.874 217.258,176.965 217.167 C 177.056 217.075,178.428 214.750,180.015 212.000 C 181.601 209.250,183.214 206.460,183.599 205.800 C 185.023 203.357,199.330 178.551,200.093 177.200 C 200.529 176.430,201.020 175.620,201.185 175.400 C 201.350 175.180,202.028 174.010,202.691 172.800 C 203.672 171.010,207.666 164.078,216.400 149.000 C 224.001 135.879,229.415 126.372,229.786 125.493 C 230.043 124.885,230.376 124.510,230.527 124.660 C 230.677 124.810,230.800 124.723,230.800 124.467 C 230.800 124.210,230.665 124.044,230.500 124.097 C 230.335 124.151,218.185 124.242,203.500 124.300 M152.600 258.723 C 148.741 261.719,95.155 316.464,95.580 316.976 C 95.865 317.319,95.958 317.600,95.787 317.600 C 95.616 317.600,95.753 317.915,96.091 318.300 C 96.429 318.685,96.829 319.405,96.980 319.900 C 97.130 320.395,97.422 320.800,97.627 320.800 C 97.832 320.800,98.000 320.993,98.000 321.228 C 98.000 321.463,98.511 322.408,99.135 323.328 C 99.759 324.248,100.523 325.585,100.832 326.300 C 101.142 327.015,101.531 327.600,101.698 327.600 C 101.864 327.600,102.000 327.881,102.000 328.224 C 102.000 328.567,102.142 328.760,102.315 328.652 C 102.488 328.545,102.668 328.919,102.715 329.482 C 102.762 330.045,103.160 330.818,103.600 331.200 C 104.040 331.582,104.400 332.098,104.400 332.347 C 104.400 332.596,104.580 332.800,104.800 332.800 C 105.020 332.800,105.200 333.250,105.200 333.800 C 105.200 334.350,105.358 334.800,105.551 334.800 C 105.745 334.800,106.127 335.340,106.400 336.000 C 107.259 338.073,107.454 337.857,112.000 329.800 C 113.614 326.940,115.236 324.150,115.606 323.600 C 115.976 323.050,116.821 321.610,117.484 320.400 C 118.621 318.324,127.984 302.096,133.291 293.000 C 134.061 291.680,135.142 289.790,135.693 288.800 C 136.244 287.810,138.991 283.040,141.797 278.200 C 147.961 267.571,148.179 267.193,149.243 265.300 C 149.706 264.475,150.218 263.620,150.379 263.400 C 150.899 262.692,153.263 258.400,153.129 258.406 C 153.058 258.409,152.820 258.552,152.600 258.723 " stroke="none" fill="#5cbce4" fill-rule="evenodd"></path><path id="path2" d="M121.929 124.300 C 129.260 124.361,141.140 124.361,148.329 124.300 C 155.518 124.239,149.520 124.189,135.000 124.189 C 120.480 124.189,114.598 124.239,121.929 124.300 M189.929 124.300 C 197.260 124.361,209.140 124.361,216.329 124.300 C 223.518 124.239,217.520 124.189,203.000 124.189 C 188.480 124.189,182.598 124.239,189.929 124.300 M161.298 176.003 L 161.200 227.406 123.895 264.703 C 103.377 285.216,86.770 302.000,86.990 302.000 C 87.211 302.000,104.089 285.305,124.497 264.900 L 161.603 227.800 161.500 176.200 L 161.397 124.600 161.298 176.003 M176.573 220.299 L 176.600 223.400 231.600 223.402 L 286.600 223.404 231.717 223.301 L 176.834 223.197 176.690 220.197 L 176.546 217.197 176.573 220.299 M133.699 276.901 C 112.525 298.076,95.200 315.584,95.200 315.807 C 95.200 316.031,107.946 303.430,123.525 287.807 C 157.843 253.390,172.672 238.400,172.401 238.400 C 172.290 238.400,154.874 255.725,133.699 276.901 M138.500 337.900 C 155.165 337.958,182.435 337.958,199.100 337.900 C 215.765 337.842,202.130 337.795,168.800 337.795 C 135.470 337.795,121.835 337.842,138.500 337.900 " stroke="none" fill="#5cb4dc" fill-rule="evenodd"></path><path id="path3" d="M223.800 136.063 C 220.280 142.238,217.018 147.944,216.552 148.745 C 212.106 156.375,203.650 171.050,202.691 172.800 C 202.028 174.010,201.350 175.180,201.185 175.400 C 201.020 175.620,200.529 176.430,200.093 177.200 C 199.335 178.541,185.046 203.316,183.599 205.800 C 176.555 217.886,176.800 217.362,176.800 220.384 L 176.800 223.200 232.176 223.200 C 281.441 223.200,289.679 223.071,287.632 222.334 C 287.428 222.260,287.202 221.930,287.130 221.600 C 287.059 221.270,286.901 220.910,286.781 220.800 C 286.088 220.168,284.800 217.982,284.800 217.438 C 284.800 217.087,284.620 216.800,284.400 216.800 C 284.180 216.800,284.000 216.564,284.000 216.275 C 284.000 215.987,283.640 215.364,283.200 214.892 C 282.760 214.420,282.400 213.745,282.400 213.393 C 282.400 213.041,282.247 212.847,282.060 212.963 C 281.872 213.079,281.486 212.465,281.200 211.600 C 280.914 210.735,280.528 210.121,280.340 210.237 C 280.153 210.353,280.000 210.167,280.000 209.824 C 280.000 209.481,279.820 209.200,279.600 209.200 C 279.380 209.200,279.200 208.855,279.200 208.433 C 279.200 208.012,279.065 207.607,278.900 207.533 C 278.735 207.460,278.167 206.545,277.637 205.500 C 277.108 204.455,276.523 203.600,276.337 203.600 C 276.152 203.600,276.000 203.240,276.000 202.800 C 276.000 202.360,275.820 202.000,275.600 202.000 C 275.380 202.000,275.200 201.653,275.200 201.229 C 275.200 200.804,274.975 200.219,274.700 199.929 C 274.425 199.638,273.930 198.862,273.600 198.204 C 273.270 197.546,272.325 195.980,271.500 194.723 C 270.675 193.467,270.000 192.160,270.000 191.819 C 270.000 191.479,269.832 191.200,269.627 191.200 C 269.422 191.200,269.140 190.841,269.001 190.402 C 268.862 189.964,268.534 189.372,268.274 189.087 C 267.514 188.257,266.800 186.860,266.800 186.205 C 266.800 185.872,266.620 185.600,266.400 185.600 C 266.180 185.600,266.000 185.364,266.000 185.075 C 266.000 184.787,265.640 184.164,265.200 183.692 C 264.760 183.220,264.400 182.556,264.400 182.217 C 264.400 181.878,264.220 181.600,264.000 181.600 C 263.780 181.600,263.600 181.330,263.600 181.000 C 263.600 180.670,263.420 180.400,263.200 180.400 C 262.980 180.400,262.800 180.164,262.800 179.875 C 262.800 179.587,262.440 178.964,262.000 178.492 C 261.560 178.020,261.200 177.356,261.200 177.017 C 261.200 176.678,261.020 176.400,260.800 176.400 C 260.580 176.400,260.400 176.164,260.400 175.875 C 260.400 175.587,260.040 174.964,259.600 174.492 C 259.160 174.020,258.800 173.367,258.800 173.040 C 258.800 172.714,258.617 172.334,258.393 172.196 C 258.170 172.058,258.076 171.801,258.184 171.626 C 258.292 171.450,258.030 170.989,257.600 170.600 C 257.170 170.211,256.915 169.737,257.033 169.547 C 257.151 169.356,257.069 169.200,256.851 169.200 C 256.453 169.200,255.772 167.663,255.921 167.100 C 255.964 166.935,255.811 166.800,255.579 166.800 C 255.348 166.800,254.970 166.260,254.740 165.600 C 254.510 164.940,254.159 164.400,253.961 164.400 C 253.762 164.400,253.600 164.040,253.600 163.600 C 253.600 163.160,253.464 162.800,253.298 162.800 C 253.131 162.800,252.740 162.215,252.428 161.500 C 252.116 160.785,251.532 159.909,251.130 159.553 C 250.729 159.197,250.400 158.612,250.400 158.253 C 250.400 157.894,250.265 157.599,250.100 157.597 C 249.735 157.593,248.800 155.651,248.800 154.897 C 248.800 154.598,248.620 154.464,248.400 154.600 C 248.180 154.736,248.000 154.567,248.000 154.224 C 248.000 153.881,247.865 153.599,247.700 153.597 C 247.335 153.593,246.400 151.651,246.400 150.897 C 246.400 150.598,246.220 150.464,246.000 150.600 C 245.780 150.736,245.600 150.567,245.600 150.224 C 245.600 149.881,245.409 149.600,245.176 149.600 C 244.943 149.600,244.855 149.435,244.980 149.232 C 245.105 149.030,244.936 148.593,244.604 148.261 C 244.272 147.929,244.000 147.374,244.000 147.029 C 244.000 146.683,243.820 146.400,243.600 146.400 C 243.380 146.400,243.200 146.130,243.200 145.800 C 243.200 145.470,243.020 145.200,242.800 145.200 C 242.580 145.200,242.400 144.932,242.400 144.605 C 242.400 144.277,242.085 143.641,241.700 143.192 C 241.315 142.742,240.991 142.245,240.981 142.087 C 240.971 141.929,240.562 141.170,240.073 140.400 C 239.584 139.630,239.078 138.595,238.948 138.100 C 238.819 137.605,238.597 137.200,238.454 137.200 C 238.312 137.200,237.936 136.615,237.620 135.900 C 237.303 135.185,236.720 134.251,236.322 133.825 C 235.925 133.398,235.600 132.693,235.600 132.258 C 235.600 131.823,235.487 131.580,235.349 131.718 C 235.210 131.856,234.613 130.983,234.022 129.778 C 233.431 128.572,232.824 127.709,232.674 127.860 C 232.523 128.010,232.400 127.743,232.400 127.267 C 232.400 126.790,232.220 126.400,232.000 126.400 C 231.780 126.400,231.600 126.040,231.600 125.600 C 231.600 123.050,229.982 125.220,223.800 136.063 M163.188 247.896 C 154.997 256.139,153.490 257.851,151.827 260.800 C 150.773 262.670,149.570 264.785,149.155 265.500 C 148.740 266.215,148.063 267.385,147.650 268.100 C 147.238 268.815,144.604 273.360,141.797 278.200 C 138.991 283.040,136.244 287.810,135.693 288.800 C 135.142 289.790,134.061 291.680,133.291 293.000 C 127.984 302.096,118.621 318.324,117.484 320.400 C 116.821 321.610,115.976 323.050,115.606 323.600 C 115.236 324.150,113.614 326.940,112.000 329.800 C 110.386 332.660,108.717 335.505,108.289 336.123 C 107.862 336.741,107.593 337.326,107.691 337.424 C 108.132 337.865,230.519 337.599,231.053 337.156 C 231.354 336.906,231.600 336.454,231.600 336.151 C 231.600 335.848,231.780 335.600,232.000 335.600 C 232.220 335.600,232.400 335.306,232.400 334.947 C 232.400 334.588,232.715 334.003,233.100 333.647 C 233.485 333.291,233.859 332.730,233.930 332.400 C 234.002 332.070,234.227 331.740,234.430 331.667 C 234.634 331.593,234.800 331.188,234.800 330.767 C 234.800 330.345,234.949 330.000,235.132 330.000 C 235.314 330.000,235.885 329.100,236.400 328.000 C 236.915 326.900,237.497 326.000,237.692 326.000 C 237.887 326.000,237.945 325.835,237.820 325.632 C 237.695 325.430,237.864 324.993,238.196 324.661 C 238.528 324.329,238.800 323.864,238.800 323.629 C 238.800 323.393,238.968 323.200,239.173 323.200 C 239.378 323.200,239.670 322.795,239.820 322.300 C 239.971 321.805,240.388 321.066,240.747 320.658 C 241.106 320.250,241.371 319.849,241.335 319.767 C 241.171 319.391,241.731 318.000,242.047 318.000 C 242.241 318.000,242.400 317.730,242.400 317.400 C 242.400 317.070,242.580 316.800,242.800 316.800 C 243.020 316.800,243.200 316.440,243.200 316.000 C 243.200 315.560,243.346 315.200,243.525 315.200 C 243.704 315.200,244.095 314.578,244.393 313.818 C 244.691 313.058,245.085 312.529,245.268 312.642 C 245.450 312.755,245.600 312.477,245.600 312.024 C 245.600 311.571,245.780 311.200,246.000 311.200 C 246.220 311.200,246.400 310.906,246.400 310.547 C 246.400 310.188,246.715 309.603,247.100 309.247 C 247.485 308.891,247.856 308.343,247.924 308.028 C 247.992 307.714,248.397 306.966,248.824 306.366 C 249.251 305.767,249.600 305.079,249.600 304.838 C 249.600 304.597,249.752 304.400,249.937 304.400 C 250.123 304.400,250.708 303.545,251.237 302.500 C 251.767 301.455,252.335 300.540,252.500 300.467 C 252.665 300.393,252.800 299.988,252.800 299.567 C 252.800 299.145,252.958 298.800,253.151 298.800 C 253.345 298.800,253.734 298.242,254.017 297.560 C 254.299 296.878,254.946 295.708,255.453 294.960 C 255.961 294.212,256.278 293.600,256.159 293.600 C 256.040 293.600,256.226 293.317,256.571 292.971 C 256.917 292.626,257.200 292.105,257.200 291.814 C 257.200 291.523,257.447 291.191,257.749 291.075 C 258.052 290.959,258.413 290.259,258.551 289.519 C 258.690 288.779,259.163 287.915,259.602 287.599 C 260.041 287.282,260.400 286.703,260.400 286.312 C 260.400 285.920,260.580 285.600,260.800 285.600 C 261.020 285.600,261.200 285.240,261.200 284.800 C 261.200 284.360,261.380 284.000,261.600 284.000 C 261.820 284.000,262.000 283.719,262.000 283.376 C 262.000 283.033,262.184 282.867,262.410 283.006 C 262.635 283.145,262.775 283.111,262.721 282.930 C 262.590 282.496,263.722 280.000,264.049 280.000 C 264.189 280.000,264.527 279.460,264.800 278.800 C 265.073 278.140,265.466 277.600,265.672 277.600 C 265.878 277.600,265.945 277.435,265.820 277.232 C 265.695 277.030,265.819 276.620,266.096 276.320 C 266.776 275.586,267.916 273.684,268.627 272.100 C 268.948 271.385,269.388 270.800,269.605 270.800 C 269.822 270.800,270.000 270.440,270.000 270.000 C 270.000 269.560,270.137 269.200,270.304 269.200 C 270.472 269.200,271.235 267.985,272.001 266.500 C 272.767 265.015,273.499 263.710,273.628 263.600 C 273.968 263.310,275.200 260.740,275.200 260.322 C 275.200 260.126,275.560 259.580,276.000 259.108 C 276.440 258.636,276.800 258.013,276.800 257.725 C 276.800 257.436,276.980 257.200,277.200 257.200 C 277.420 257.200,277.600 256.930,277.600 256.600 C 277.600 256.270,277.780 256.000,278.000 256.000 C 278.220 256.000,278.400 255.674,278.400 255.275 C 278.400 254.877,278.760 254.164,279.200 253.692 C 279.640 253.220,280.000 252.545,280.000 252.193 C 280.000 251.841,280.180 251.664,280.400 251.800 C 280.620 251.936,280.800 251.764,280.800 251.418 C 280.800 250.688,281.500 249.382,282.500 248.245 C 282.885 247.807,283.200 247.213,283.200 246.925 C 283.200 246.636,283.380 246.400,283.600 246.400 C 283.820 246.400,284.000 246.040,284.000 245.600 C 284.000 245.160,284.180 244.800,284.400 244.800 C 284.620 244.800,284.800 244.440,284.800 244.000 C 284.800 243.560,284.980 243.200,285.200 243.200 C 285.420 243.200,285.600 242.900,285.600 242.533 C 285.600 242.167,285.719 241.986,285.865 242.132 C 286.011 242.277,286.464 241.650,286.872 240.739 C 287.280 239.827,287.506 238.973,287.374 238.840 C 287.242 238.708,261.371 238.553,229.883 238.496 L 172.632 238.392 163.188 247.896 " stroke="none" fill="#9bd4f3" fill-rule="evenodd"></path><path id="path4" d="M161.504 175.938 L 161.608 227.800 124.485 264.914 C 104.067 285.327,87.453 302.119,87.564 302.230 C 87.675 302.342,104.469 285.731,124.883 265.317 L 162.000 228.202 161.994 176.601 C 161.991 148.220,161.856 124.792,161.694 124.538 C 161.532 124.284,161.447 147.414,161.504 175.938 M176.267 125.067 C 175.934 125.400,175.910 222.500,176.243 223.367 C 176.504 224.049,286.918 224.380,287.338 223.700 C 287.440 223.535,262.589 223.400,232.114 223.400 L 176.704 223.400 176.775 174.100 C 176.813 146.985,176.775 124.800,176.689 124.800 C 176.603 124.800,176.413 124.920,176.267 125.067 M133.499 276.301 C 112.435 297.366,95.200 314.781,95.200 315.000 C 95.200 315.219,112.525 298.074,133.700 276.900 L 172.200 238.402 229.800 238.300 L 287.400 238.197 229.599 238.099 L 171.798 238.000 133.499 276.301 " stroke="none" fill="#3c4c4c" fill-rule="evenodd"></path></g></svg>